<svg id="b5dda43c-c8a3-4925-aa85-3401a9a8b7ad" data-name="Layer 1" xmlns="http://www.w3.org/2000/svg" viewBox="0 0 318.18 322.36"><path d="M130.58,273.17c-19.1-8.44-32.56-26.43-36.93-49.34a84.15,84.15,0,0,1,1.89-39.33,74.41,74.41,0,0,1,20.69-33.94l3.17-2.19A26.16,26.16,0,0,1,132,143.06a10.64,10.64,0,0,1,1.68-.16c1.26,0,2.07.34,2.42,1,.55,1.06.36,3.54-3.68,9.33-.23.32-.44.65-.65,1l-.2.32-.41.68-.21.37-.36.67-.18.35c-.13.26-.26.53-.38.8l-.1.2c-.15.33-.28.66-.41,1l-.12.29c-.09.24-.18.48-.26.72L129,160l-.22.68-.09.34c-.07.24-.13.49-.2.73l-.07.28c-.07.32-.14.65-.2,1l0,.13c-.06.35-.1.61-.14.87l0,.27c0,.29-.07.51-.09.73l0,.35c0,.24,0,.47-.06.71l0,.28c0,.63,0,1.29,0,2v.18c0,.31,0,.56,0,.8l0,.27c0,.25,0,.5.06.75l0,.21c.07.66.16,1.31.28,2l.18.92-.46.21.48-.1c.07.29.14.59.2.87a24.19,24.19,0,0,0,3.23,7.82l.18.3-.23.28c-12.09,14.34-17,31.33-14.59,50.49,2,16,8.74,30.16,14,39.2l.78,1.34Z" style="fill:gray"/><path d="M133.65,143.4c1.06,0,1.72.25,2,.74s.61,2.72-3.65,8.81c-.23.33-.45.67-.66,1l-.14.22-.07.11c-.14.23-.28.46-.41.69l-.22.37-.36.69-.05.09-.13.26c-.14.27-.27.54-.4.82l0,.07-.06.13c-.15.34-.3.68-.43,1l-.08.21,0,.1q-.15.36-.27.72c0,.13-.09.25-.13.38s-.14.44-.21.69l-.11.35c-.06.25-.13.49-.19.74l0,.1,0,.18c-.08.34-.15.67-.22,1l0,.13v.09c-.05.26-.1.53-.14.8l0,.28v.06c0,.23-.06.46-.09.68l0,.35-.06.73v.08l0,.2c0,.65,0,1.32,0,2v.25c0,.25,0,.5,0,.75l0,.27.06.77v.21c.07.66.17,1.32.29,2l.18.93v0l0,.06c.06.3.13.6.2.89l0,.06a24.21,24.21,0,0,0,3.26,7.89c-28,33.16-11.05,72.43-.62,90.28-19-8.4-32.27-26.09-36.64-49A83.81,83.81,0,0,1,96,184.64a74,74,0,0,1,20.54-33.71l3.13-2.14a.1.1,0,0,1,0,0,25.53,25.53,0,0,1,12.31-5.19,8.82,8.82,0,0,1,1.6-.16m0-1a10.74,10.74,0,0,0-1.77.17A26.49,26.49,0,0,0,119.12,148L116,150.11l-.06,0,0,0a74.87,74.87,0,0,0-20.83,34.16,84.74,84.74,0,0,0-1.91,39.56c4.41,23.08,18,41.2,37.23,49.71l2.83,1.25-1.56-2.67c-5.27-9-12-23.07-14-39-2.39-19,2.48-35.88,14.49-50.11l.46-.55-.37-.61a23.4,23.4,0,0,1-3.15-7.62l0-.06c-.07-.28-.13-.57-.2-.86v-.11c-.06-.3-.12-.59-.17-.89-.12-.67-.21-1.31-.28-2l0-.13v-.06c0-.25-.05-.5-.07-.75v-.26c0-.24,0-.48,0-.73v-.24c0-.65,0-1.29,0-1.92v-.27c0-.23,0-.46.05-.7s0-.22,0-.33.05-.44.08-.66v-.07l0-.26c0-.25.08-.51.13-.76l0-.09,0-.14c.06-.31.13-.63.2-.95l0-.16,0-.11c.06-.24.12-.48.19-.71l.09-.33c.08-.24.14-.46.21-.67l.12-.36c.08-.23.17-.46.26-.7l0-.1.07-.19c.13-.32.26-.65.41-1l.06-.12,0-.07c.12-.27.25-.53.38-.79l.13-.25,0-.09.36-.66c.06-.12.13-.24.2-.36s.26-.44.4-.66l.07-.11.14-.22c.19-.31.41-.64.63-1,3.36-4.8,4.61-8.11,3.72-9.84-.45-.85-1.41-1.28-2.87-1.28Z" style="fill:#fff"/><path d="M133.2,274.78h0l-.17-.26C133.09,274.61,133.14,274.7,133.2,274.78Z"/><path d="M243.43,69.75A123.7,123.7,0,1,0,68.49,244.68,123.7,123.7,0,1,0,243.43,69.75ZM156,276.91a120.23,120.23,0,0,1-23-2.21c-47.76-18.57-55-89.64-17-124.55l3.18-2.19a26.52,26.52,0,0,1,12.76-5.39c5.52-.95,7.13,2.07.93,10.94h0c-.22.32-.44.65-.64,1l-.2.31-.4.67c-.07.12-.14.24-.2.36l-.36.66-.17.34c-.13.26-.26.52-.38.78l-.09.2c-.15.32-.28.65-.41,1,0,.1-.07.2-.11.29-.09.24-.18.47-.26.7l-.12.36c-.07.21-.13.43-.2.64s-.07.24-.1.36-.13.47-.19.71c0,.09-.05.18-.07.27-.07.32-.14.64-.2,1a1.55,1.55,0,0,0,0,.21c0,.25-.09.51-.13.76s0,.22,0,.33-.06.44-.08.66,0,.22,0,.33,0,.47-.05.7,0,.18,0,.27c0,.65,0,1.29,0,1.92v.24c0,.25,0,.49,0,.73s0,.17,0,.26c0,.25,0,.5.07.75a1.23,1.23,0,0,0,0,.19q.11,1,.27,1.92v0c.05.31.11.61.17.9l0,.11c.07.29.13.58.2.87l0,.05a24.14,24.14,0,0,0,3.51,8.22,30.3,30.3,0,0,1,4.86,5.09c6.23,7.58,15.89,21.76,18.06,31.82,3.1,14.42,12.21,9.89,12.21,9.89l11.39-2.87c21.05-5.63,16.69-21.8,16.69-21.8l-11.19-87.31c-4.72-7.72,15.36-11.19,15.36-11.19-44.43-27.9-101.94-37.8-151.52-1.68A119.71,119.71,0,1,1,156,276.91Z"/><path d="M185.13,117.27a.43.43,0,0,0-.07-.2,3.41,3.41,0,0,1-.36-3.32c1.47-3.24,8.06-5.37,11.85-6.34l1.83-.47L197,108.25c-2.87,2.79-8.07,8.11-10.54,12.44l-.74,1.29Z" style="fill:gray"/><path d="M196.67,107.89c-3.16,3.06-8.17,8.26-10.63,12.55l-.41-3.24a1.07,1.07,0,0,0-.14-.39,2.89,2.89,0,0,1-.33-2.86c1.29-2.85,7.17-4.94,11.51-6.06m3.41-1.91-3.65.94c-4.75,1.22-10.71,3.36-12.18,6.62a3.87,3.87,0,0,0,.38,3.79l.42,3.24.38,3,1.48-2.58c2.44-4.27,7.6-9.56,10.46-12.33l2.71-2.63Z" style="fill:#fff"/><path d="M173.75,149.66c2.25.73-7-16.36-8.79-15.29s-1.56,8.92,5,21.07C170,155.44,171.49,148.93,173.75,149.66Z" style="fill:#fff"/></svg>