<svg id="f5d74a9e-ef0b-4135-8bfd-56b4521c4b9f" data-name="Layer 1" xmlns="http://www.w3.org/2000/svg" viewBox="0 0 772.7 293.16"><path d="M144.9,150.44c-1.51,0-2.79-.12-4.29-.23-8.47-.58-13-2.79-18.11-10-4.29-5.92-8.47-13.23-12.18-19.15-2.32-3.71-3.83-4.41-9.75-4.41H96.51v18.22c0,9.86,1.28,10.44,10.56,11.37v3.25h-31v-3.25c9.63-1,10.44-1.51,10.44-11.37V88.59c0-9.86-1.28-10.21-10.44-11.26V74.08h29.59c8.47,0,14.15,1,18.56,4,4.76,3,7.9,8.24,7.9,15.32,0,10-6.39,16.24-15,20,2.08,3.59,7.07,11.37,10.56,16.59a106,106,0,0,0,9.16,11.95,16.76,16.76,0,0,0,8.47,5.34Zm-42.82-37.71c6,0,9.86-.93,12.77-3.37,4.52-3.36,6.38-8,6.38-14.27,0-12.42-8.24-16.94-17.18-16.94-3.36,0-5.33.46-6.15,1.16-1,.81-1.39,2-1.39,5v28.43Z" style="fill:#fff"/><path d="M209.65,131.06c-.69,3-3.83,15-5,18.45H148.27v-3.25c10.79-.81,11.6-1.85,11.6-11.37V89.05c0-10.32-1.28-10.9-10-11.72V74.08H185.4c10.91,0,15.43-.11,16.83-.23.11,2.9.58,11.61,1,17.76l-3.48.58a39,39,0,0,0-3.48-8.82c-1.86-3.83-4.53-4.64-11.49-4.64h-11c-3.6,0-3.83.34-3.83,3.71v25.64h12.88c8.7,0,9.28-1.74,10.67-9.63h3.6v23.91h-3.6c-1.51-8.36-2.43-9.52-10.79-9.52H170v23.09c0,8.13,2.55,8.82,8.35,8.94h10.79c7.08,0,8.24-1,10.8-4.06,2.2-2.44,4.64-7.2,6.26-10.68Z" style="fill:#fff"/><path d="M298,77.33c-7.43.82-9.86,2-10.21,7.31-.12,3.72-.35,8.59-.35,19.38v46.54H283L233.33,89.87v29c0,10.44.34,15.66.58,19,.23,5.92,3.13,7.66,11.48,8.35v3.25H217.2v-3.25c7.19-.58,10-2.32,10.44-8,.35-3.72.58-8.94.58-19.5V89.17c0-3.25-.23-5.11-2.32-7.66-2.21-2.9-4.64-3.6-10.33-4.18V74.08H233l49.2,58.37V104c0-10.79-.23-15.78-.58-19.26-.35-5.22-3-6.85-12.3-7.43V74.08H298Z" style="fill:#fff"/><path d="M367.47,131.06c-.7,3-3.83,15-5,18.45h-56.4v-3.25c10.8-.81,11.61-1.85,11.61-11.37V89.05c0-10.32-1.28-10.9-10-11.72V74.08h35.51c10.91,0,15.43-.11,16.82-.23.12,2.9.58,11.61,1,17.76l-3.48.58a39,39,0,0,0-3.48-8.82c-1.86-3.83-4.53-4.64-11.49-4.64h-11c-3.59,0-3.83.34-3.83,3.71v25.64h12.89c8.7,0,9.28-1.74,10.67-9.63h3.6v23.91h-3.6c-1.51-8.36-2.44-9.52-10.79-9.52H327.78v23.09c0,8.13,2.56,8.82,8.36,8.94h10.79c7.08,0,8.24-1,10.79-4.06,2.21-2.44,4.65-7.2,6.27-10.68Z" style="fill:#fff"/><path d="M451.37,117.83c-7.19.93-7.66,1.63-7.66,8.47v9.75a63.8,63.8,0,0,0,.7,11c-7.2,1.62-16.6,4.17-26.34,4.17-26.35,0-42.36-16.36-42.36-39.68,0-24.49,20-39.11,43.17-39.11,11.84,0,20.54,2.32,24.14,2.9.23,4.29.81,11.37,1.74,18.68l-3.48.7c-2.79-9.86-6.15-14-13.47-16.48A39,39,0,0,0,417,76.75c-17.75,0-29.24,12.19-29.24,33.42,0,18.45,9.52,36.79,32,36.79a23.2,23.2,0,0,0,9.86-2c2.44-1.4,3.95-2.67,3.95-7.43V128c0-8.47-.93-9.4-12.07-10.21v-3.36h29.82Z" style="fill:#fff"/><path d="M504.29,149.51v-3.25c7.54-.93,8.47-2.09,6.84-6.5s-3.83-10.32-6.26-17.63H479.8c-1.86,5.22-3.6,9.74-5.22,14.5-2.55,7.54-.93,8.47,8.59,9.63v3.25H456.36v-3.25c7.31-.93,9.17-1.74,13.23-12.18l24-60.92,3.71-.7c7.31,19.84,15.32,41.77,22.63,61.85,3.72,10.1,4.76,11,13,11.95v3.25ZM492.68,87.66c-3.71,10-7.66,20.54-11.14,29.71h21.7Z" style="fill:#fff"/><path d="M569.85,74.08c16.36,0,26.69,3.25,33.89,10.1,5.68,5.57,9.86,13.69,9.86,24.83,0,13.58-5.57,24.6-14.51,31.33s-20.07,9.17-34.34,9.17H537.59v-3.25c10-.93,10.45-1.74,10.45-11.25V88.71c0-10-1.4-10.45-10.45-11.38V74.08Zm-11.72,60c0,8.7,3.71,11.14,12.42,11.14,20.89,0,31.56-14.27,31.56-34.58,0-12.65-4.29-22.28-13.46-27.85-5.34-3.37-12.07-4.64-19.84-4.64-5.22,0-8,.69-9.17,1.62-1,.7-1.51,2-1.51,6.5Z" style="fill:#fff"/><path d="M685.08,131.06c-.69,3-3.83,15-5,18.45H623.7v-3.25c10.79-.81,11.6-1.85,11.6-11.37V89.05c0-10.32-1.28-10.9-10-11.72V74.08h35.51c10.91,0,15.43-.11,16.83-.23.11,2.9.58,11.61,1,17.76l-3.48.58a39,39,0,0,0-3.48-8.82c-1.86-3.83-4.53-4.64-11.49-4.64h-11c-3.59,0-3.82.34-3.82,3.71v25.64h12.88c8.7,0,9.28-1.74,10.67-9.63h3.6v23.91H669c-1.51-8.36-2.43-9.52-10.79-9.52H645.4v23.09c0,8.13,2.55,8.82,8.35,8.94h10.79c7.08,0,8.24-1,10.8-4.06,2.2-2.44,4.64-7.2,6.26-10.68Z" style="fill:#fff"/><path d="M109.58,212.87l-9.76-13.71a31.35,31.35,0,0,1-3.41.18H85v13.53H80.44V170.2h16q8.16,0,12.8,3.9t4.63,10.73a13.24,13.24,0,0,1-9.75,13.41l10.42,14.63ZM106,192.7a9.72,9.72,0,0,0,3.35-7.87q0-5.18-3.35-8t-9.69-2.78H85v21.4H96.29Q102.62,195.5,106,192.7Z" style="fill:#fff"/><path d="M173,209v3.9H142.8V170.2h29.26v3.9H147.31v15.18h22.07v3.84H147.31V209Z" style="fill:#fff"/><path d="M204.52,211.71a16.61,16.61,0,0,1-6.73-4l1.76-3.47a17.12,17.12,0,0,0,6.16,3.75,22.61,22.61,0,0,0,7.93,1.43c3.81,0,6.68-.7,8.59-2.11a6.48,6.48,0,0,0,2.87-5.45,5.46,5.46,0,0,0-1.56-4.09,10.56,10.56,0,0,0-3.81-2.34,61.06,61.06,0,0,0-6.28-1.8,65.71,65.71,0,0,1-7.68-2.35,12.63,12.63,0,0,1-4.91-3.44,9.18,9.18,0,0,1-2-6.28,10.61,10.61,0,0,1,1.71-5.88,11.69,11.69,0,0,1,5.24-4.24,21.4,21.4,0,0,1,8.78-1.59,25.8,25.8,0,0,1,7.16,1,20.81,20.81,0,0,1,6.07,2.77l-1.53,3.6a20.73,20.73,0,0,0-5.73-2.65,21.32,21.32,0,0,0-6-.88q-5.61,0-8.44,2.16a6.71,6.71,0,0,0-2.84,5.58,5.54,5.54,0,0,0,1.56,4.11,10.07,10.07,0,0,0,3.9,2.38q2.34.83,6.31,1.8a63.5,63.5,0,0,1,7.59,2.28,12.46,12.46,0,0,1,4.9,3.42,9,9,0,0,1,2,6.19,10.5,10.5,0,0,1-1.74,5.88,11.63,11.63,0,0,1-5.34,4.2,22.15,22.15,0,0,1-8.83,1.56A27.37,27.37,0,0,1,204.52,211.71Z" style="fill:#fff"/><path d="M264.81,210.4a20.75,20.75,0,0,1-8.05-7.77,22.74,22.74,0,0,1,0-22.19,20.75,20.75,0,0,1,8.05-7.77,24.66,24.66,0,0,1,22.92,0,20.73,20.73,0,0,1,8,7.77,22.59,22.59,0,0,1,0,22.25,20.66,20.66,0,0,1-8,7.77,24.66,24.66,0,0,1-22.92,0Zm20.64-3.47a16.59,16.59,0,0,0,6.4-6.34,18.9,18.9,0,0,0,0-18.11,16.66,16.66,0,0,0-6.4-6.34,19.54,19.54,0,0,0-18.32,0,16.68,16.68,0,0,0-6.46,6.34,18.62,18.62,0,0,0,0,18.11,16.61,16.61,0,0,0,6.46,6.34,19.46,19.46,0,0,0,18.32,0Z" style="fill:#fff"/><path d="M331.35,208.48q-4.64-4.75-4.63-13.83V170.2h4.51v24.26q0,7.44,3.35,11.1t9.69,3.66q6.41,0,9.76-3.66t3.35-11.1V170.2h4.39v24.45q0,9.07-4.6,13.83t-12.9,4.76Q336,213.24,331.35,208.48Z" style="fill:#fff"/><path d="M422.79,212.87,413,199.16a31.53,31.53,0,0,1-3.42.18H398.16v13.53h-4.51V170.2h16q8.17,0,12.8,3.9t4.64,10.73a13.23,13.23,0,0,1-9.76,13.41l10.43,14.63Zm-3.6-20.17a9.69,9.69,0,0,0,3.36-7.87q0-5.18-3.36-8t-9.69-2.78H398.16v21.4H409.5Q415.85,195.5,419.19,192.7Z" style="fill:#fff"/><path d="M463.12,210.43a20.44,20.44,0,0,1-8-7.77,22.79,22.79,0,0,1,0-22.25,20.46,20.46,0,0,1,8-7.77,23.44,23.44,0,0,1,11.46-2.81,23.71,23.71,0,0,1,8.78,1.59,18.25,18.25,0,0,1,6.82,4.63l-2.86,2.87a17,17,0,0,0-12.62-5.06,18.6,18.6,0,0,0-9.21,2.31,17,17,0,0,0-6.49,6.34,18.5,18.5,0,0,0,0,18.05,17,17,0,0,0,6.49,6.34,18.61,18.61,0,0,0,9.21,2.32,16.75,16.75,0,0,0,12.62-5.13l2.86,2.87a18.34,18.34,0,0,1-6.86,4.66,24.68,24.68,0,0,1-20.23-1.19Z" style="fill:#fff"/><path d="M548.31,209v3.9H518.13V170.2h29.26v3.9H522.64v15.18h22.07v3.84H522.64V209Z" style="fill:#fff"/><path d="M579.85,211.71a16.61,16.61,0,0,1-6.73-4l1.77-3.47A17,17,0,0,0,581,208,22.65,22.65,0,0,0,589,209.4q5.73,0,8.59-2.11a6.48,6.48,0,0,0,2.87-5.45,5.46,5.46,0,0,0-1.56-4.09,10.47,10.47,0,0,0-3.81-2.34,60.75,60.75,0,0,0-6.27-1.8,65.35,65.35,0,0,1-7.69-2.35,12.59,12.59,0,0,1-4.9-3.44,9.18,9.18,0,0,1-2.05-6.28,10.61,10.61,0,0,1,1.71-5.88,11.75,11.75,0,0,1,5.24-4.24,21.43,21.43,0,0,1,8.78-1.59,25.93,25.93,0,0,1,7.17,1,20.87,20.87,0,0,1,6.06,2.77l-1.52,3.6a21,21,0,0,0-5.73-2.65,21.44,21.44,0,0,0-6-.88q-5.61,0-8.44,2.16a6.71,6.71,0,0,0-2.84,5.58,5.54,5.54,0,0,0,1.56,4.11,10.22,10.22,0,0,0,3.9,2.38q2.36.83,6.31,1.8A63.5,63.5,0,0,1,598,192a12.5,12.5,0,0,1,4.91,3.42,9,9,0,0,1,2,6.19,10.5,10.5,0,0,1-1.74,5.88,11.6,11.6,0,0,1-5.33,4.2,22.24,22.24,0,0,1-8.84,1.56A27.37,27.37,0,0,1,579.85,211.71Z" style="fill:#fff"/></svg>