<svg id="b5618e67-39dc-479d-98c1-9f1fde92f5a5" data-name="Layer 1" xmlns="http://www.w3.org/2000/svg" viewBox="0 0 318.18 322.36"><path d="M132.05,143.56a25.53,25.53,0,0,0-12.31,5.19.1.1,0,0,0,0,0l-3.13,2.14A74,74,0,0,0,96,184.64a83.81,83.81,0,0,0-1.88,39.09c4.37,22.9,17.65,40.59,36.64,49-10.43-17.85-27.35-57.12.62-90.28a24.44,24.44,0,0,1-3.27-7.89v-.06c-.07-.29-.14-.59-.2-.89l0-.06v0l-.18-.93c-.12-.7-.22-1.36-.29-2v-.21l-.06-.77,0-.27c0-.25,0-.5,0-.75v-.25c0-.68,0-1.35,0-2l0-.2V166l.06-.73,0-.35c0-.22,0-.45.09-.68v-.06l0-.28c0-.27.09-.54.14-.8V163l0-.13c.07-.34.14-.67.22-1l0-.18,0-.1c.06-.25.13-.49.19-.74l.11-.35c.07-.25.14-.47.21-.69s.09-.25.13-.38.17-.48.27-.72l0-.1.08-.21c.13-.33.28-.67.43-1l.06-.13,0-.07c.13-.28.26-.55.4-.82l.13-.26.05-.09.36-.69.22-.37c.13-.23.27-.46.41-.69l.07-.11.14-.22c.21-.33.43-.67.66-1,4.26-6.09,4-8.19,3.65-8.81s-.92-.74-2-.74A8.82,8.82,0,0,0,132.05,143.56Z"/><path d="M133.2,274.78h0l-.17-.26C133.09,274.61,133.14,274.7,133.2,274.78Z"/><path d="M243.43,69.75A123.7,123.7,0,1,0,68.49,244.68,123.7,123.7,0,1,0,243.43,69.75ZM156,276.91a120.23,120.23,0,0,1-23-2.21c-47.76-18.57-55-89.64-17-124.55l3.18-2.19a26.52,26.52,0,0,1,12.76-5.39c5.52-.95,7.13,2.07.93,10.94h0c-.22.32-.44.65-.64,1l-.2.31-.4.67c-.07.12-.14.24-.2.36l-.36.66-.17.34c-.13.26-.26.52-.38.78l-.09.2c-.15.32-.28.65-.41,1,0,.1-.07.2-.11.29-.09.24-.18.47-.26.7l-.12.36c-.07.21-.13.43-.2.64s-.07.24-.1.36-.13.47-.19.71c0,.09-.05.18-.07.27-.07.32-.14.64-.2,1a1.55,1.55,0,0,0,0,.21c0,.25-.09.51-.13.76s0,.22,0,.33-.06.44-.08.66,0,.22,0,.33,0,.47-.05.7,0,.18,0,.27c0,.65,0,1.29,0,1.92v.24c0,.25,0,.49,0,.73s0,.17,0,.26c0,.25,0,.5.07.75a1.23,1.23,0,0,0,0,.19q.11,1,.27,1.92v0c.05.31.11.61.17.9l0,.11c.07.29.13.58.2.87l0,.05a24.14,24.14,0,0,0,3.51,8.22,30.3,30.3,0,0,1,4.86,5.09c6.23,7.58,15.89,21.76,18.06,31.82,3.1,14.42,12.21,9.89,12.21,9.89l11.39-2.87c21.05-5.63,16.69-21.8,16.69-21.8l-11.19-87.31c-4.72-7.72,15.36-11.19,15.36-11.19-44.43-27.9-101.94-37.8-151.52-1.68A119.71,119.71,0,1,1,156,276.91Zm9-142.54c1.77-1.07,11,16,8.79,15.29s-3.75,5.78-3.75,5.78C163.4,143.29,163.19,135.44,165,134.37Z"/><path d="M185.16,114a2.89,2.89,0,0,0,.33,2.86,1.07,1.07,0,0,1,.14.39l.41,3.24c2.46-4.29,7.47-9.49,10.63-12.55C192.33,109,186.45,111.1,185.16,114Z"/></svg>