<svg id="fac23c29-de1d-4311-bb2c-4744e9fb5dbc" data-name="Layer 1" xmlns="http://www.w3.org/2000/svg" viewBox="0 0 996.75 369.14"><path d="M188.89,300.53c-19.1-8.45-32.56-26.43-36.94-49.35a84.38,84.38,0,0,1,1.89-39.32,74.45,74.45,0,0,1,20.69-33.94l3.18-2.19a26.07,26.07,0,0,1,12.57-5.31,9.55,9.55,0,0,1,1.67-.16c1.26,0,2.08.34,2.43,1,.55,1.06.36,3.53-3.67,9.3l-.67,1-.2.32c-.14.23-.28.46-.41.69l-.2.36c-.13.23-.25.45-.36.67l-.19.35c-.13.26-.26.53-.38.8l-.09.21c-.15.32-.29.65-.42,1l-.11.3c-.09.24-.18.47-.26.71l-.13.37c-.07.22-.14.44-.2.66l-.11.35c-.07.25-.13.49-.19.74l-.07.27q-.12.5-.21,1l0,.13c-.07.34-.11.6-.15.86l0,.24c0,.32-.07.55-.1.77l0,.35c0,.23,0,.47-.05.71l0,.27c0,.64-.05,1.31,0,2v.19c0,.3,0,.55,0,.8l0,.26c0,.25,0,.51.07.76l0,.2c.06.64.16,1.29.27,1.93.06.36.12.67.19,1l0,.1c.06.3.13.59.2.88a24,24,0,0,0,3.23,7.81l.18.31-.23.27c-12.1,14.34-17,31.33-14.6,50.5,2,16,8.74,30.16,14,39.2l.78,1.33Z" style="fill:gray"/><path d="M192,170.76c1.06,0,1.73.25,2,.74s.62,2.71-3.63,8.78l0,0q-.34.49-.66,1l-.14.22-.06.11c-.15.23-.29.47-.42.7l-.21.37-.37.68,0,.09-.13.26c-.14.28-.27.55-.39.82l0,.07-.06.13c-.15.34-.29.68-.43,1l-.07.2,0,.1-.27.73-.12.37-.21.68,0,.08c0,.1-.05.19-.08.28l-.2.74,0,.11-.05.17c-.07.34-.15.68-.21,1l0,.13v.08c0,.27-.09.54-.13.8,0,.1,0,.2,0,.29v0c0,.23-.06.46-.08.69l0,.35c0,.24,0,.48-.05.73v.27c0,.66-.05,1.34,0,2v.25l0,.76,0,.27c0,.26,0,.51.07.77v.06l0,.14c.07.66.16,1.33.27,2l0,.07q.07.47.18.93l0,.11c.07.3.13.59.2.89l0,.06a24.63,24.63,0,0,0,3.27,7.89c-28,33.16-11.06,72.43-.62,90.27-19-8.4-32.27-26.08-36.65-49A83.8,83.8,0,0,1,154.32,212a74,74,0,0,1,20.55-33.71l3.12-2.15,0,0a25.57,25.57,0,0,1,12.32-5.2,9.61,9.61,0,0,1,1.59-.15m0-1a9.73,9.73,0,0,0-1.76.17,26.49,26.49,0,0,0-12.76,5.39l-3.13,2.14-.06,0-.05.05a75,75,0,0,0-20.83,34.17,84.82,84.82,0,0,0-1.9,39.55c4.41,23.08,18,41.2,37.22,49.72l2.83,1.25L190,299.57c-5.26-9-12-23.08-14-39-2.4-19,2.48-35.88,14.48-50.11l.46-.54-.36-.61a23.72,23.72,0,0,1-3.16-7.62l0-.07c-.06-.27-.13-.56-.19-.85l0-.11q-.1-.45-.18-.9l-1,.11,1-.17q-.17-.94-.27-1.89v-.19l-.06-.76,0-.26,0-.72v-.25c0-.63,0-1.28,0-1.92v-.26l.06-.7,0-.34c0-.21,0-.43.08-.65v-.05l0-.28c0-.26.08-.51.12-.77l0-.09,0-.13c.06-.31.13-.64.21-1l0-.16,0-.1c.06-.24.13-.48.19-.72l.08-.26,0-.09c.06-.22.13-.43.2-.65l.12-.36.25-.69,0-.11.08-.19c.12-.32.26-.64.41-1l.05-.12,0-.06c.13-.27.25-.54.38-.8l.13-.25.05-.09c.11-.22.23-.43.35-.65s.14-.24.2-.36l.41-.67.07-.11.13-.22c.2-.31.41-.63.63-1h0l0,0c3.34-4.78,4.59-8.08,3.69-9.8-.44-.85-1.41-1.28-2.87-1.28Z" style="fill:#fff"/><path d="M191.5,302.14h0l-.17-.25Z"/><path d="M301.73,97.1A123.68,123.68,0,1,0,282.12,288h-7.64a119.87,119.87,0,0,1-83.21,14c-47.77-18.56-55-89.64-17-124.55l3.19-2.18a26.38,26.38,0,0,1,12.76-5.39c5.52-1,7.13,2.07.92,10.94h0c-.23.32-.44.64-.65,1l-.19.32c-.14.22-.28.45-.4.67l-.21.36c-.12.22-.24.43-.35.65l-.18.34c-.13.26-.25.53-.37.79a1.63,1.63,0,0,0-.09.19c-.15.33-.29.65-.42,1,0,.1-.07.19-.11.29s-.17.46-.25.7l-.12.35c-.07.22-.14.43-.2.65l-.11.35c-.06.24-.13.48-.18.71a2.68,2.68,0,0,0-.07.27c-.08.33-.15.65-.21,1a1.55,1.55,0,0,1,0,.21c0,.26-.09.51-.12.77s0,.22-.05.33,0,.44-.08.66l0,.33-.06.7c0,.09,0,.17,0,.26,0,.65-.05,1.29,0,1.93,0,.08,0,.16,0,.24l0,.73c0,.08,0,.17,0,.25l.06.75a1.36,1.36,0,0,1,0,.2c.07.64.16,1.28.27,1.91v0q.08.45.18.9l0,.11c.06.29.13.58.2.86v.06a24.52,24.52,0,0,0,3.52,8.22,31,31,0,0,1,4.85,5.08c6.24,7.59,15.9,21.76,18.06,31.83,3.1,14.41,12.22,9.89,12.22,9.89l11.39-2.88c21.05-5.62,16.68-21.8,16.68-21.8l-11.19-87.3c-4.72-7.72,15.36-11.19,15.36-11.19-44.42-27.91-101.93-37.81-151.51-1.69a119.72,119.72,0,0,1,199.87-23.36h5.14A125.38,125.38,0,0,0,301.73,97.1Z"/><path d="M243.44,144.62a.68.68,0,0,0-.07-.2,3.41,3.41,0,0,1-.36-3.32c1.47-3.24,8.05-5.36,11.84-6.34l1.83-.47-1.35,1.31c-2.88,2.79-8.07,8.12-10.55,12.45l-.74,1.29Z" style="fill:gray"/><path d="M255,135.25c-3.16,3.06-8.18,8.25-10.63,12.55l-.42-3.24a1,1,0,0,0-.14-.4,2.9,2.9,0,0,1-.32-2.85c1.29-2.85,7.17-4.95,11.51-6.06m3.4-1.91-3.65.94c-4.74,1.22-10.7,3.36-12.18,6.61a3.9,3.9,0,0,0,.39,3.79l.42,3.25.38,2.95,1.48-2.58c2.44-4.28,7.6-9.56,10.46-12.34l2.7-2.62Z" style="fill:#fff"/><path d="M232.05,177c2.26.72-7-16.36-8.78-15.29s-1.57,8.91,5,21.07C228.3,182.8,229.79,176.29,232.05,177Z" style="fill:#fff"/><path d="M363.1,205.24c-1.51,0-2.79-.12-4.3-.23-8.47-.58-13-2.79-18.1-10-4.29-5.92-8.47-13.23-12.18-19.15-2.32-3.71-3.83-4.41-9.75-4.41h-4.06v18.22c0,9.86,1.27,10.44,10.56,11.37v3.25h-31v-3.25c9.64-1,10.45-1.51,10.45-11.37v-46.3c0-9.87-1.28-10.21-10.45-11.26v-3.25h29.6c8.47,0,14.15,1.05,18.56,4,4.76,3,7.89,8.24,7.89,15.32,0,10-6.38,16.24-15,20,2.09,3.59,7.08,11.37,10.56,16.59a107,107,0,0,0,9.17,12,16.68,16.68,0,0,0,8.47,5.34Zm-42.82-37.71c6,0,9.86-.93,12.76-3.37,4.53-3.36,6.39-8,6.39-14.27,0-12.42-8.24-16.95-17.18-16.95-3.36,0-5.34.47-6.15,1.17-1,.81-1.39,2-1.39,5v28.44Z"/><path d="M427.85,185.86c-.7,3-3.83,15-5,18.45h-56.4v-3.25c10.8-.81,11.61-1.85,11.61-11.37V143.85c0-10.33-1.28-10.91-10-11.72v-3.25H403.6c10.91,0,15.43-.11,16.82-.23.12,2.9.58,11.61,1.05,17.76L418,147a39,39,0,0,0-3.48-8.82c-1.86-3.83-4.53-4.65-11.49-4.65H392c-3.59,0-3.83.35-3.83,3.72v25.64h12.89c8.7,0,9.28-1.74,10.67-9.63h3.6v23.91h-3.6c-1.51-8.36-2.44-9.52-10.79-9.52H388.16v23.09c0,8.13,2.56,8.82,8.36,8.94h10.79c7.08,0,8.24-1,10.79-4.06,2.21-2.44,4.65-7.2,6.27-10.68Z"/><path d="M516.16,132.13c-7.43.81-9.86,2-10.21,7.31-.12,3.72-.35,8.59-.35,19.38v46.54h-4.41l-49.67-60.69v29c0,10.44.35,15.66.58,19,.24,5.92,3.14,7.66,11.49,8.35v3.25h-28.2v-3.25c7.2-.58,10-2.32,10.45-8,.35-3.71.58-8.93.58-19.49V144c0-3.25-.23-5.11-2.32-7.66-2.21-2.9-4.64-3.6-10.33-4.18v-3.25h17.41l49.2,58.37V158.82c0-10.79-.23-15.78-.58-19.26-.35-5.22-3-6.85-12.3-7.43v-3.25h28.66Z"/><path d="M585.67,185.86c-.7,3-3.83,15-5,18.45h-56.4v-3.25c10.79-.81,11.61-1.85,11.61-11.37V143.85c0-10.33-1.28-10.91-10-11.72v-3.25h35.51c10.9,0,15.43-.11,16.82-.23.12,2.9.58,11.61,1,17.76l-3.48.58a38.51,38.51,0,0,0-3.49-8.82c-1.85-3.83-4.52-4.65-11.48-4.65h-11c-3.59,0-3.83.35-3.83,3.72v25.64h12.88c8.71,0,9.29-1.74,10.68-9.63h3.6v23.91h-3.6c-1.51-8.36-2.44-9.52-10.79-9.52H546v23.09c0,8.13,2.56,8.82,8.36,8.94h10.79c7.08,0,8.24-1,10.79-4.06,2.21-2.44,4.64-7.2,6.27-10.68Z"/><path d="M669.57,172.63c-7.19.93-7.66,1.63-7.66,8.47v9.75a63.61,63.61,0,0,0,.7,11c-7.2,1.63-16.6,4.18-26.35,4.18-26.34,0-42.35-16.36-42.35-39.69,0-24.48,20-39.1,43.17-39.1,11.83,0,20.54,2.32,24.13,2.9.24,4.29.82,11.37,1.75,18.68l-3.49.7c-2.78-9.87-6.15-14-13.46-16.48a39,39,0,0,0-10.79-1.51C617.47,131.55,606,143.74,606,165c0,18.45,9.51,36.79,32,36.79a23.2,23.2,0,0,0,9.86-2c2.44-1.4,3.94-2.67,3.94-7.43v-9.52c0-8.47-.92-9.4-12.06-10.21v-3.36h29.82Z"/><path d="M722.48,204.31v-3.25c7.55-.93,8.48-2.09,6.85-6.5s-3.83-10.32-6.27-17.64H698c-1.86,5.23-3.6,9.75-5.22,14.51-2.56,7.54-.93,8.47,8.58,9.63v3.25h-26.8v-3.25c7.31-.93,9.17-1.74,13.23-12.18l24-60.93,3.71-.69c7.31,19.84,15.32,41.77,22.63,61.85,3.71,10.1,4.76,11,13,11.95v3.25Zm-11.6-61.85c-3.71,10-7.66,20.54-11.14,29.71h21.7Z"/><path d="M788.05,128.88c16.36,0,26.69,3.25,33.88,10.1,5.69,5.57,9.87,13.69,9.87,24.83,0,13.58-5.57,24.6-14.51,31.33s-20.07,9.17-34.35,9.17H755.79v-3.25c10-.93,10.44-1.74,10.44-11.25V143.5c0-10-1.39-10.44-10.44-11.37v-3.25Zm-11.72,60c0,8.7,3.71,11.14,12.42,11.14,20.88,0,31.56-14.28,31.56-34.58,0-12.65-4.29-22.28-13.46-27.85-5.34-3.37-12.07-4.65-19.84-4.65-5.23,0-8,.7-9.17,1.63-1.05.7-1.51,2-1.51,6.5Z"/><path d="M903.28,185.86c-.7,3-3.83,15-5,18.45h-56.4v-3.25c10.8-.81,11.61-1.85,11.61-11.37V143.85c0-10.33-1.28-10.91-10-11.72v-3.25H879c10.91,0,15.43-.11,16.82-.23.12,2.9.58,11.61,1,17.76l-3.48.58a39,39,0,0,0-3.48-8.82c-1.86-3.83-4.53-4.65-11.49-4.65h-11c-3.59,0-3.83.35-3.83,3.72v25.64h12.88c8.71,0,9.29-1.74,10.68-9.63h3.6v23.91h-3.6c-1.51-8.36-2.44-9.52-10.79-9.52H863.59v23.09c0,8.13,2.56,8.82,8.36,8.94h10.79c7.08,0,8.24-1,10.79-4.06,2.21-2.44,4.65-7.2,6.27-10.68Z"/><path d="M327.77,267.67,318,254a31.35,31.35,0,0,1-3.41.18H303.15v13.53h-4.51V225h16q8.16,0,12.8,3.9T332,239.63A13.24,13.24,0,0,1,322.29,253l10.42,14.63Zm-3.59-20.18a9.68,9.68,0,0,0,3.35-7.86c0-3.45-1.12-6.11-3.35-8s-5.47-2.77-9.69-2.77H303.15v21.4h11.34Q320.82,250.3,324.18,247.49Z"/><path d="M391.17,263.77v3.9H361V225h29.26v3.9H365.51v15.18h22.07v3.84H365.51v15.85Z"/><path d="M422.72,266.51a16.66,16.66,0,0,1-6.74-4l1.77-3.47a17,17,0,0,0,6.16,3.74,22.38,22.38,0,0,0,7.92,1.44q5.73,0,8.6-2.11a6.47,6.47,0,0,0,2.86-5.45,5.46,5.46,0,0,0-1.55-4.09,10.64,10.64,0,0,0-3.81-2.34,61.06,61.06,0,0,0-6.28-1.8,65.71,65.71,0,0,1-7.68-2.35,12.63,12.63,0,0,1-4.91-3.44,9.18,9.18,0,0,1-2-6.28,10.59,10.59,0,0,1,1.71-5.88,11.64,11.64,0,0,1,5.24-4.24,21.4,21.4,0,0,1,8.78-1.59,25.86,25.86,0,0,1,7.16,1,20.56,20.56,0,0,1,6.07,2.77l-1.53,3.6a21,21,0,0,0-5.73-2.65,21.34,21.34,0,0,0-6-.89c-3.74,0-6.56.73-8.45,2.17a6.73,6.73,0,0,0-2.83,5.58,5.57,5.57,0,0,0,1.55,4.11,10.18,10.18,0,0,0,3.91,2.38q2.34.82,6.31,1.8a64.66,64.66,0,0,1,7.59,2.28,12.46,12.46,0,0,1,4.9,3.42,9,9,0,0,1,2,6.18,10.5,10.5,0,0,1-1.73,5.89,11.63,11.63,0,0,1-5.34,4.2,22.21,22.21,0,0,1-8.84,1.56A27.31,27.31,0,0,1,422.72,266.51Z"/><path d="M483,265.2a20.68,20.68,0,0,1-8.05-7.77,22.74,22.74,0,0,1,0-22.19,20.68,20.68,0,0,1,8.05-7.77,24.66,24.66,0,0,1,22.92,0,20.79,20.79,0,0,1,8,7.77,22.65,22.65,0,0,1,0,22.25,20.79,20.79,0,0,1-8,7.77,24.66,24.66,0,0,1-22.92,0Zm20.63-3.47a16.62,16.62,0,0,0,6.41-6.34,18.9,18.9,0,0,0,0-18.11,16.62,16.62,0,0,0-6.41-6.34,19.52,19.52,0,0,0-18.31,0,16.77,16.77,0,0,0-6.47,6.34,18.69,18.69,0,0,0,0,18.11,16.77,16.77,0,0,0,6.47,6.34,19.52,19.52,0,0,0,18.31,0Z"/><path d="M549.55,263.28q-4.63-4.75-4.63-13.84V225h4.51v24.26q0,7.44,3.35,11.1t9.69,3.65q6.4,0,9.76-3.65t3.35-11.1V225H580v24.44q0,9.09-4.61,13.84T562.47,268Q554.18,268,549.55,263.28Z"/><path d="M641,267.67,631.23,254a31.21,31.21,0,0,1-3.41.18H616.36v13.53h-4.51V225h16q8.17,0,12.8,3.9t4.64,10.73A13.23,13.23,0,0,1,635.5,253l10.43,14.63Zm-3.6-20.18a9.65,9.65,0,0,0,3.35-7.86c0-3.45-1.11-6.11-3.35-8s-5.46-2.77-9.69-2.77H616.36v21.4H627.7Q634,250.3,637.39,247.49Z"/><path d="M681.31,265.23a20.55,20.55,0,0,1-8-7.77,22.79,22.79,0,0,1,0-22.25,20.5,20.5,0,0,1,8-7.77,24.89,24.89,0,0,1,20.24-1.22,18.28,18.28,0,0,1,6.83,4.63l-2.86,2.87a17,17,0,0,0-12.62-5.06,18.58,18.58,0,0,0-9.21,2.31,17,17,0,0,0-6.49,6.34,18.5,18.5,0,0,0,0,18.05,17,17,0,0,0,6.49,6.34,18.58,18.58,0,0,0,9.21,2.31,16.76,16.76,0,0,0,12.62-5.12l2.86,2.87a18.34,18.34,0,0,1-6.86,4.66,24.7,24.7,0,0,1-20.24-1.19Z"/><path d="M766.51,263.77v3.9H736.33V225h29.26v3.9H740.84v15.18h22.07v3.84H740.84v15.85Z"/><path d="M798.05,266.51a16.61,16.61,0,0,1-6.73-4l1.76-3.47a17,17,0,0,0,6.16,3.74,22.39,22.39,0,0,0,7.93,1.44q5.73,0,8.59-2.11a6.48,6.48,0,0,0,2.87-5.45,5.46,5.46,0,0,0-1.56-4.09,10.47,10.47,0,0,0-3.81-2.34,60.32,60.32,0,0,0-6.28-1.8,65.71,65.71,0,0,1-7.68-2.35,12.7,12.7,0,0,1-4.91-3.44,9.18,9.18,0,0,1-2-6.28,10.59,10.59,0,0,1,1.71-5.88,11.69,11.69,0,0,1,5.24-4.24,21.43,21.43,0,0,1,8.78-1.59,25.8,25.8,0,0,1,7.16,1,20.56,20.56,0,0,1,6.07,2.77l-1.52,3.6a20.92,20.92,0,0,0-5.74-2.65,21.34,21.34,0,0,0-6-.89c-3.74,0-6.55.73-8.44,2.17a6.71,6.71,0,0,0-2.84,5.58,5.54,5.54,0,0,0,1.56,4.11,10.07,10.07,0,0,0,3.9,2.38c1.56.55,3.67,1.15,6.31,1.8a63.5,63.5,0,0,1,7.59,2.28,12.57,12.57,0,0,1,4.91,3.42,9,9,0,0,1,2,6.18,10.51,10.51,0,0,1-1.74,5.89,11.65,11.65,0,0,1-5.33,4.2,22.24,22.24,0,0,1-8.84,1.56A27.37,27.37,0,0,1,798.05,266.51Z"/></svg>