<svg id="a94e6d90-4267-495d-a955-42618d8bff68" data-name="Layer 1" xmlns="http://www.w3.org/2000/svg" viewBox="0 0 996.75 369.14"><path d="M178,176.08c-.29.24-.78.58-1.62,1.15l-1.52,1.05A74,74,0,0,0,154.32,212a83.8,83.8,0,0,0-1.88,39.09c4.38,22.9,17.66,40.58,36.65,49-10.44-17.84-27.36-57.11.62-90.27a24.63,24.63,0,0,1-3.27-7.89v-.06c-.08-.29-.14-.59-.21-.89l0-.11c-.07-.31-.13-.62-.18-.94-.13-.69-.22-1.36-.29-2l0-.13v-.07c0-.26-.05-.52-.07-.77l0-.27,0-.76v-.25c0-.67,0-1.34,0-2v-.28c0-.24,0-.48.05-.72s0-.24,0-.35.05-.46.08-.69v-.06l0-.28c0-.26.08-.53.13-.8v-.07l0-.15c.06-.33.13-.67.21-1l.05-.18,0-.1c.07-.24.13-.49.2-.74s.07-.23.1-.35.14-.47.22-.69l.12-.37.27-.73,0-.1.07-.2c.14-.34.28-.68.43-1l.06-.13,0-.07c.12-.27.25-.54.39-.82l.14-.26,0-.09.37-.68.21-.37c.13-.23.27-.47.42-.7l.06-.11.14-.22c.21-.33.43-.66.67-1,4.26-6.1,4-8.19,3.64-8.81s-.92-.74-2-.74a9.61,9.61,0,0,0-1.59.15,25.53,25.53,0,0,0-12.32,5.2Z" style="fill:#fff"/><path d="M191.5,302.14h0l-.17-.25Z" style="fill:#fff"/><path d="M301.73,97.1A123.68,123.68,0,1,0,282.12,288h-7.64a119.87,119.87,0,0,1-83.21,14c-47.77-18.56-55-89.64-17-124.55l3.19-2.18a26.38,26.38,0,0,1,12.76-5.39c5.52-1,7.13,2.07.92,10.94h0c-.23.32-.44.64-.65,1l-.19.32-.41.67c-.06.12-.13.24-.2.36s-.24.43-.35.65l-.18.34c-.13.26-.25.53-.37.79l-.1.19c-.14.33-.28.65-.41,1,0,.1-.07.19-.11.29s-.17.46-.25.7l-.12.35c-.07.22-.14.43-.2.65l-.11.35c-.06.24-.13.48-.18.71a2.68,2.68,0,0,0-.07.27c-.08.33-.15.65-.21,1a1.55,1.55,0,0,1,0,.21c0,.26-.09.51-.12.77s0,.22-.05.33-.06.44-.08.66l0,.33-.06.7c0,.09,0,.17,0,.26,0,.65-.05,1.29,0,1.93,0,.08,0,.16,0,.24l0,.73c0,.08,0,.17,0,.25l.06.75a1.36,1.36,0,0,1,0,.2c.07.64.16,1.28.27,1.91v0q.08.45.18.9l0,.11c.06.29.13.58.2.86v.06a24.52,24.52,0,0,0,3.52,8.22,31,31,0,0,1,4.85,5.08c6.24,7.59,15.9,21.76,18.06,31.83,3.1,14.41,12.22,9.89,12.22,9.89l11.39-2.88c21.05-5.62,16.68-21.8,16.68-21.8l-11.19-87.3c-4.72-7.72,15.36-11.19,15.36-11.19-44.42-27.91-101.93-37.81-151.51-1.69a119.72,119.72,0,0,1,199.87-23.36h5.14A125.38,125.38,0,0,0,301.73,97.1Zm-78.46,64.63c1.77-1.07,11,16,8.78,15.29s-3.75,5.78-3.75,5.78C221.7,170.64,221.49,162.8,223.27,161.73Z" style="fill:#fff"/><path d="M243.47,141.31a2.9,2.9,0,0,0,.32,2.85,1,1,0,0,1,.14.4l.42,3.24c2.45-4.3,7.47-9.49,10.63-12.55C250.64,136.36,244.76,138.46,243.47,141.31Z" style="fill:#fff"/><path d="M363.1,205.24c-1.51,0-2.79-.12-4.3-.23-8.47-.58-13-2.79-18.1-10-4.29-5.92-8.47-13.23-12.18-19.15-2.32-3.71-3.83-4.41-9.75-4.41h-4.06v18.22c0,9.86,1.27,10.44,10.56,11.37v3.25h-31v-3.25c9.64-1,10.45-1.51,10.45-11.37v-46.3c0-9.87-1.28-10.21-10.45-11.26v-3.25h29.59c8.48,0,14.16,1.05,18.57,4,4.76,3,7.89,8.24,7.89,15.32,0,10-6.38,16.24-15,20,2.09,3.59,7.08,11.37,10.56,16.59a107,107,0,0,0,9.17,12,16.68,16.68,0,0,0,8.47,5.34Zm-42.82-37.71c6,0,9.86-.93,12.76-3.37,4.53-3.36,6.38-8,6.38-14.27,0-12.42-8.23-16.95-17.17-16.95-3.36,0-5.34.47-6.15,1.17-1,.81-1.39,2-1.39,5v28.44Z" style="fill:#fff"/><path d="M427.85,185.86c-.7,3-3.83,15-5,18.45h-56.4v-3.25c10.8-.81,11.61-1.85,11.61-11.37V143.85c0-10.33-1.28-10.91-10-11.72v-3.25H403.6c10.91,0,15.43-.11,16.82-.23.12,2.9.58,11.61,1.05,17.76L418,147a39,39,0,0,0-3.48-8.82c-1.86-3.83-4.53-4.65-11.49-4.65H392c-3.59,0-3.83.35-3.83,3.72v25.64H401c8.71,0,9.29-1.74,10.68-9.63h3.6v23.91h-3.6c-1.51-8.36-2.44-9.52-10.79-9.52H388.16v23.09c0,8.13,2.56,8.82,8.36,8.94h10.79c7.08,0,8.24-1,10.79-4.06,2.21-2.44,4.64-7.2,6.27-10.68Z" style="fill:#fff"/><path d="M516.16,132.13c-7.43.81-9.86,2-10.21,7.31-.12,3.72-.35,8.59-.35,19.38v46.54h-4.41l-49.67-60.69v29c0,10.44.35,15.66.58,19,.24,5.92,3.14,7.66,11.49,8.35v3.25h-28.2v-3.25c7.2-.58,10-2.32,10.45-8,.35-3.71.58-8.93.58-19.49V144c0-3.25-.23-5.11-2.32-7.66-2.21-2.9-4.65-3.6-10.33-4.18v-3.25h17.41l49.2,58.37V158.82c0-10.79-.23-15.78-.58-19.26-.35-5.22-3-6.85-12.3-7.43v-3.25h28.66Z" style="fill:#fff"/><path d="M585.67,185.86c-.7,3-3.83,15-5,18.45h-56.4v-3.25c10.79-.81,11.61-1.85,11.61-11.37V143.85c0-10.33-1.28-10.91-10-11.72v-3.25h35.51c10.9,0,15.43-.11,16.82-.23.12,2.9.58,11.61,1,17.76l-3.48.58a38.51,38.51,0,0,0-3.49-8.82c-1.85-3.83-4.52-4.65-11.48-4.65h-11c-3.6,0-3.83.35-3.83,3.72v25.64h12.88c8.71,0,9.29-1.74,10.68-9.63h3.6v23.91h-3.6c-1.51-8.36-2.44-9.52-10.79-9.52H546v23.09c0,8.13,2.55,8.82,8.36,8.94h10.79c7.08,0,8.24-1,10.79-4.06,2.21-2.44,4.64-7.2,6.27-10.68Z" style="fill:#fff"/><path d="M669.57,172.63c-7.2.93-7.66,1.63-7.66,8.47v9.75a63.61,63.61,0,0,0,.7,11c-7.2,1.63-16.6,4.18-26.35,4.18-26.34,0-42.35-16.36-42.35-39.69,0-24.48,20-39.1,43.17-39.1,11.83,0,20.54,2.32,24.13,2.9.24,4.29.82,11.37,1.74,18.68l-3.48.7c-2.78-9.87-6.15-14-13.46-16.48a39,39,0,0,0-10.79-1.51C617.47,131.55,606,143.74,606,165c0,18.45,9.51,36.79,32,36.79a23.2,23.2,0,0,0,9.86-2c2.44-1.4,3.94-2.67,3.94-7.43v-9.52c0-8.47-.92-9.4-12.06-10.21v-3.36h29.82Z" style="fill:#fff"/><path d="M722.48,204.31v-3.25c7.55-.93,8.47-2.09,6.85-6.5s-3.83-10.32-6.27-17.64H698c-1.86,5.23-3.6,9.75-5.22,14.51-2.56,7.54-.93,8.47,8.58,9.63v3.25h-26.8v-3.25c7.31-.93,9.17-1.74,13.23-12.18l24-60.93,3.71-.69c7.31,19.84,15.32,41.77,22.63,61.85,3.71,10.1,4.76,11,13,11.95v3.25Zm-11.6-61.85c-3.71,10-7.66,20.54-11.14,29.71h21.7Z" style="fill:#fff"/><path d="M788.05,128.88c16.36,0,26.69,3.25,33.88,10.1,5.69,5.57,9.87,13.69,9.87,24.83,0,13.58-5.57,24.6-14.51,31.33s-20.07,9.17-34.35,9.17H755.79v-3.25c10-.93,10.44-1.74,10.44-11.25V143.5c0-10-1.39-10.44-10.44-11.37v-3.25Zm-11.72,60c0,8.7,3.71,11.14,12.41,11.14,20.89,0,31.57-14.28,31.57-34.58,0-12.65-4.29-22.28-13.46-27.85-5.34-3.37-12.07-4.65-19.85-4.65-5.22,0-8,.7-9.16,1.63-1.05.7-1.51,2-1.51,6.5Z" style="fill:#fff"/><path d="M903.28,185.86c-.7,3-3.83,15-5,18.45h-56.4v-3.25c10.8-.81,11.61-1.85,11.61-11.37V143.85c0-10.33-1.28-10.91-10-11.72v-3.25H879c10.91,0,15.43-.11,16.82-.23.12,2.9.58,11.61,1,17.76l-3.48.58a39,39,0,0,0-3.48-8.82c-1.86-3.83-4.53-4.65-11.49-4.65h-11c-3.59,0-3.83.35-3.83,3.72v25.64h12.88c8.71,0,9.29-1.74,10.68-9.63h3.6v23.91h-3.6c-1.51-8.36-2.44-9.52-10.79-9.52H863.59v23.09c0,8.13,2.56,8.82,8.36,8.94h10.79c7.08,0,8.24-1,10.79-4.06,2.21-2.44,4.64-7.2,6.27-10.68Z" style="fill:#fff"/><path d="M327.77,267.67,318,254a31.48,31.48,0,0,1-3.41.18H303.15v13.53h-4.52V225h16q8.16,0,12.8,3.9T332,239.63A13.24,13.24,0,0,1,322.29,253l10.42,14.63Zm-3.59-20.18a9.68,9.68,0,0,0,3.35-7.86c0-3.45-1.12-6.11-3.35-8s-5.47-2.77-9.7-2.77H303.15v21.4h11.33Q320.82,250.3,324.18,247.49Z" style="fill:#fff"/><path d="M391.17,263.77v3.9H361V225h29.26v3.9H365.51v15.18h22.07v3.84H365.51v15.85Z" style="fill:#fff"/><path d="M422.72,266.51a16.66,16.66,0,0,1-6.74-4l1.77-3.47a16.88,16.88,0,0,0,6.16,3.74,22.38,22.38,0,0,0,7.92,1.44q5.73,0,8.6-2.11a6.47,6.47,0,0,0,2.86-5.45,5.5,5.5,0,0,0-1.55-4.09,10.64,10.64,0,0,0-3.81-2.34,61.82,61.82,0,0,0-6.28-1.8,65.71,65.71,0,0,1-7.68-2.35,12.63,12.63,0,0,1-4.91-3.44,9.18,9.18,0,0,1-2-6.28,10.59,10.59,0,0,1,1.71-5.88,11.64,11.64,0,0,1,5.24-4.24,21.4,21.4,0,0,1,8.78-1.59,25.86,25.86,0,0,1,7.16,1,20.56,20.56,0,0,1,6.07,2.77l-1.53,3.6a21,21,0,0,0-5.73-2.65,21.34,21.34,0,0,0-6-.89c-3.74,0-6.56.73-8.45,2.17a6.7,6.7,0,0,0-2.83,5.58,5.57,5.57,0,0,0,1.55,4.11,10.18,10.18,0,0,0,3.91,2.38q2.34.82,6.3,1.8a63.5,63.5,0,0,1,7.59,2.28,12.5,12.5,0,0,1,4.91,3.42,9,9,0,0,1,2,6.18,10.58,10.58,0,0,1-1.73,5.89,11.63,11.63,0,0,1-5.34,4.2,22.21,22.21,0,0,1-8.84,1.56A27.27,27.27,0,0,1,422.72,266.51Z" style="fill:#fff"/><path d="M483,265.2a20.68,20.68,0,0,1-8.05-7.77,22.74,22.74,0,0,1,0-22.19,20.68,20.68,0,0,1,8.05-7.77,24.66,24.66,0,0,1,22.92,0,20.79,20.79,0,0,1,8,7.77,22.65,22.65,0,0,1,0,22.25,20.79,20.79,0,0,1-8,7.77,24.66,24.66,0,0,1-22.92,0Zm20.63-3.47a16.52,16.52,0,0,0,6.4-6.34,18.83,18.83,0,0,0,0-18.11,16.52,16.52,0,0,0-6.4-6.34,18.42,18.42,0,0,0-9.14-2.28,18.66,18.66,0,0,0-9.18,2.28,16.82,16.82,0,0,0-6.46,6.34,18.69,18.69,0,0,0,0,18.11,16.82,16.82,0,0,0,6.46,6.34A18.66,18.66,0,0,0,494.5,264,18.42,18.42,0,0,0,503.64,261.73Z" style="fill:#fff"/><path d="M549.55,263.28q-4.63-4.75-4.64-13.84V225h4.52v24.26q0,7.44,3.35,11.1t9.69,3.65q6.4,0,9.76-3.65t3.35-11.1V225H580v24.44q0,9.09-4.61,13.84T562.47,268Q554.18,268,549.55,263.28Z" style="fill:#fff"/><path d="M641,267.67,631.23,254a31.21,31.21,0,0,1-3.41.18H616.36v13.53h-4.51V225h16q8.17,0,12.8,3.9t4.64,10.73A13.23,13.23,0,0,1,635.5,253l10.43,14.63Zm-3.6-20.18a9.65,9.65,0,0,0,3.35-7.86c0-3.45-1.11-6.11-3.35-8s-5.47-2.77-9.69-2.77H616.36v21.4H627.7C631.92,250.3,635.16,249.36,637.39,247.49Z" style="fill:#fff"/><path d="M681.31,265.23a20.55,20.55,0,0,1-8-7.77,22.79,22.79,0,0,1,0-22.25,20.5,20.5,0,0,1,8-7.77,24.89,24.89,0,0,1,20.24-1.22,18.28,18.28,0,0,1,6.83,4.63l-2.87,2.87a17,17,0,0,0-12.61-5.06,18.58,18.58,0,0,0-9.21,2.31,17,17,0,0,0-6.49,6.34,18.5,18.5,0,0,0,0,18.05,17,17,0,0,0,6.49,6.34,18.58,18.58,0,0,0,9.21,2.31,16.72,16.72,0,0,0,12.61-5.12l2.87,2.87a18.42,18.42,0,0,1-6.86,4.66,24.7,24.7,0,0,1-20.24-1.19Z" style="fill:#fff"/><path d="M766.5,263.77v3.9H736.33V225h29.26v3.9H740.84v15.18h22.07v3.84H740.84v15.85Z" style="fill:#fff"/><path d="M798.05,266.51a16.61,16.61,0,0,1-6.73-4l1.76-3.47a17,17,0,0,0,6.16,3.74,22.39,22.39,0,0,0,7.93,1.44c3.81,0,6.68-.7,8.59-2.11a6.48,6.48,0,0,0,2.87-5.45,5.46,5.46,0,0,0-1.56-4.09,10.47,10.47,0,0,0-3.81-2.34,61.06,61.06,0,0,0-6.28-1.8,65.71,65.71,0,0,1-7.68-2.35,12.7,12.7,0,0,1-4.91-3.44,9.18,9.18,0,0,1-2-6.28,10.59,10.59,0,0,1,1.71-5.88,11.69,11.69,0,0,1,5.24-4.24,21.4,21.4,0,0,1,8.78-1.59,25.8,25.8,0,0,1,7.16,1,20.56,20.56,0,0,1,6.07,2.77l-1.53,3.6a20.73,20.73,0,0,0-5.73-2.65,21.34,21.34,0,0,0-6-.89c-3.74,0-6.55.73-8.44,2.17a6.71,6.71,0,0,0-2.84,5.58,5.54,5.54,0,0,0,1.56,4.11,10.07,10.07,0,0,0,3.9,2.38c1.56.55,3.67,1.15,6.31,1.8a63.5,63.5,0,0,1,7.59,2.28,12.57,12.57,0,0,1,4.91,3.42,9,9,0,0,1,2,6.18,10.51,10.51,0,0,1-1.74,5.89,11.65,11.65,0,0,1-5.33,4.2,22.24,22.24,0,0,1-8.84,1.56A27.37,27.37,0,0,1,798.05,266.51Z" style="fill:#fff"/></svg>